<?xml version="1.0" encoding="UTF-8"?>
<svg id="Art" xmlns="http://www.w3.org/2000/svg" viewBox="0 0 3500 344.21">
  <defs>
    <style>
      .cls-1 {
        opacity: .05;
      }

      .cls-2 {
        fill: #838b9e;
      }
    </style>
  </defs>
  <g class="cls-1">
    <path class="cls-2" d="M3499.49.08c-36.74,0-75.53-1.73-110.54,11.38-28.75,10.77-54.33,30.01-74.55,52.92-25.91,29.35-44.56,66.69-47.72,106.06V.08h-.51c-36.74,0-75.53-1.73-110.54,11.38-28.75,10.77-54.33,30.01-74.55,52.92-25.91,29.35-44.56,66.69-47.72,106.06V.08h-.51c-36.74,0-75.53-1.73-110.54,11.38-28.75,10.77-54.33,30.01-74.55,52.92-25.91,29.35-44.56,66.69-47.72,106.06V.08h-.52c-36.74,0-75.53-1.73-110.54,11.38-28.75,10.77-54.33,30.01-74.55,52.92-25.91,29.35-44.56,66.69-47.72,106.06V.08h-.51c-36.74,0-75.53-1.73-110.54,11.38-28.75,10.77-54.33,30.01-74.55,52.92-25.91,29.35-44.56,66.69-47.72,106.06V.08h-.51c-36.74,0-75.53-1.73-110.54,11.38-28.75,10.77-54.33,30.01-74.55,52.92-25.91,29.35-44.56,66.69-47.72,106.06V.08h-.51c-36.74,0-75.53-1.73-110.54,11.38-28.75,10.77-54.33,30.01-74.55,52.92-25.91,29.35-44.56,66.69-47.72,106.06V.08h-.51c-36.74,0-75.53-1.73-110.54,11.38-28.75,10.77-54.33,30.01-74.55,52.92-25.91,29.35-44.56,66.69-47.72,106.06V.08h-.52c-36.74,0-75.53-1.73-110.54,11.38-28.75,10.77-54.33,30.01-74.55,52.92-25.91,29.35-44.56,66.69-47.72,106.06V.08h-.51c-36.74,0-75.53-1.73-110.54,11.38-28.75,10.77-54.33,30.01-74.55,52.92-25.91,29.35-44.56,66.69-47.72,106.06V.08h-.51c-36.74,0-75.53-1.73-110.54,11.38-28.75,10.77-54.33,30.01-74.55,52.92-25.91,29.35-44.56,66.69-47.72,106.06V.08h-.51c-36.74,0-75.53-1.73-110.54,11.38-28.75,10.77-54.33,30.01-74.55,52.92-25.91,29.35-44.56,66.69-47.72,106.06V.08h-.52c-36.74,0-75.53-1.73-110.54,11.38-28.75,10.77-54.33,30.01-74.55,52.92-25.91,29.35-44.56,66.69-47.72,106.06V.08h-.52c-36.74,0-75.53-1.73-110.54,11.38-28.75,10.77-54.33,30.01-74.55,52.92-25.91,29.35-44.56,66.69-47.72,106.06V.08h-.51c-36.74,0-75.53-1.73-110.54,11.38-28.75,10.77-54.33,30.01-74.55,52.92C21.59,94.14,2.76,132.11,0,172.08c0,.03,0,.05,0,.08h3500V.08h-.51Z"/>
    <rect class="cls-2" y="172.29" width="3500" height="172"/>
  </g>
</svg>