<?xml version="1.0" encoding="UTF-8"?>
<svg id="Art" xmlns="http://www.w3.org/2000/svg" viewBox="0 0 3500 172.21">
  <defs>
    <style>
      .cls-1 {
        fill: #e9edd2;
      }
    </style>
  </defs>
  <path class="cls-1" d="M361.92,172.08c-2.76-39.97-21.58-77.94-47.85-107.7-20.22-22.91-45.8-42.15-74.55-52.92C204.5-1.65,165.72.08,128.98.08h-1.03C91.21.08,52.42-1.65,17.41,11.46c-28.75,10.77-54.33,30.01-74.55,52.92-26.27,29.76-45.09,67.73-47.85,107.7,0,.03,0,.05,0,.08h466.92s0-.05,0-.08Z"/>
  <path class="cls-1" d="M828.92,172.08c-2.76-39.97-21.58-77.94-47.85-107.7-20.22-22.91-45.8-42.15-74.55-52.92C671.5-1.65,632.72.08,595.98.08h-1.03c-36.74,0-75.53-1.73-110.54,11.38-28.75,10.77-54.33,30.01-74.55,52.92-26.27,29.76-45.09,67.73-47.85,107.7,0,.03,0,.05,0,.08h466.92s0-.05,0-.08Z"/>
  <path class="cls-1" d="M1295.92,172.08c-2.76-39.97-21.58-77.94-47.85-107.7-20.22-22.91-45.8-42.15-74.55-52.92C1138.5-1.65,1099.72.08,1062.98.08h-1.03c-36.74,0-75.53-1.73-110.54,11.38-28.75,10.77-54.33,30.01-74.55,52.92-26.27,29.76-45.09,67.73-47.85,107.7,0,.03,0,.05,0,.08h466.92s0-.05,0-.08Z"/>
  <path class="cls-1" d="M1762.92,172.08c-2.76-39.97-21.58-77.94-47.85-107.7-20.22-22.91-45.8-42.15-74.55-52.92C1605.5-1.65,1566.72.08,1529.98.08h-1.03c-36.74,0-75.53-1.73-110.54,11.38-28.75,10.77-54.33,30.01-74.55,52.92-26.27,29.76-45.09,67.73-47.85,107.7,0,.03,0,.05,0,.08h466.92s0-.05,0-.08Z"/>
  <path class="cls-1" d="M2229.92,172.08c-2.76-39.97-21.58-77.94-47.85-107.7-20.22-22.91-45.8-42.15-74.55-52.92C2072.5-1.65,2033.72.08,1996.98.08h-1.03c-36.74,0-75.53-1.73-110.54,11.38-28.75,10.77-54.33,30.01-74.55,52.92-26.27,29.76-45.09,67.73-47.85,107.7,0,.03,0,.05,0,.08h466.92s0-.05,0-.08Z"/>
  <path class="cls-1" d="M2696.92,172.08c-2.76-39.97-21.58-77.94-47.85-107.7-20.22-22.91-45.8-42.15-74.55-52.92C2539.5-1.65,2500.72.08,2463.98.08h-1.03c-36.74,0-75.53-1.73-110.54,11.38-28.75,10.77-54.33,30.01-74.55,52.92-26.27,29.76-45.09,67.73-47.85,107.7,0,.03,0,.05,0,.08h466.92s0-.05,0-.08Z"/>
  <path class="cls-1" d="M3163.92,172.08c-2.76-39.97-21.58-77.94-47.85-107.7-20.22-22.91-45.8-42.15-74.55-52.92C3006.5-1.65,2967.72.08,2930.98.08h-1.03c-36.74,0-75.53-1.73-110.54,11.38-28.75,10.77-54.33,30.01-74.55,52.92-26.27,29.76-45.09,67.73-47.85,107.7,0,.03,0,.05,0,.08h466.92s0-.05,0-.08Z"/>
  <path class="cls-1" d="M3630.92,172.08c-2.76-39.97-21.58-77.94-47.85-107.7-20.22-22.91-45.8-42.15-74.55-52.92C3473.5-1.65,3434.72.08,3397.98.08h-1.03c-36.74,0-75.53-1.73-110.54,11.38-28.75,10.77-54.33,30.01-74.55,52.92-26.27,29.76-45.09,67.73-47.85,107.7,0,.03,0,.05,0,.08h466.92s0-.05,0-.08Z"/>
  <rect class="cls-1" x="-125" y=".29" width="254" height="63"/>
  <rect class="cls-1" x="3373" y=".29" width="254" height="63"/>
</svg>