<?xml version="1.0" encoding="UTF-8"?>
<svg id="Art" xmlns="http://www.w3.org/2000/svg" viewBox="0 0 3500 1238">
  <defs>
    <style>
      .cls-1 {
        fill: #1d1c1a;
      }

      .cls-2 {
        fill: #3b3529;
      }

      .cls-3 {
        fill: #e6813b;
      }

      .cls-4 {
        fill: #f6f6f4;
      }

      .cls-5 {
        fill: #e9edd2;
      }
    </style>
  </defs>
  <polygon class="cls-5" points="3029 880 2401 880 2165 880 2157 880 1441 880 1441 882 2157 882 2165 882 2401 882 3029 882 3273 882 3273 880 3029 880"/>
  <path class="cls-4" d="M1804,700v-220l337-125h-386c-59-1-91,34-91,34-47.5,47.5-43.1,90-43.1,90v279h-63.9c-49,0-82,37-82,37l37,16.19v36.81h474l-242-93c62,0,60-55,60-55Z"/>
  <path class="cls-1" d="M1584,785s27-1,27-27h-54c-32.27,0-57.59,16.04-71.13,27h98.13Z"/>
  <path class="cls-1" d="M2141,346h-385.93c-.85-.01-1.71-.02-2.55-.02h0c-59.18,0-92.12,33.7-95,36.77-47.47,47.55-46.03,90.97-45.62,96.62v269.63h9v-270s-4.4-42.5,43.1-90c0,0,31.1-34.02,88.52-34.02.82,0,1.65,0,2.48.02h386l24.3-9h-24.3Z"/>
  <polygon class="cls-1" points="1441 880 1483 880 1483 839.29 1441 880"/>
  <polyline class="cls-3" points="1483 839.29 1483 880 1512 848 1512 811.19"/>
  <path class="cls-1" d="M1442,795c-2.78-.02-43.07-.03-101.95,16.19h101.95v-16.19Z"/>
  <polyline class="cls-3" points="1442 795 1442 811.19 1512 811.19 1475 795 1442.16 795"/>
  <path class="cls-3" d="M1807.26,848s6.74,9,23.74,9h59.94v-9h-83.68Z"/>
  <path class="cls-2" d="M1530.5,772c1.93,0,3.5,1.57,3.5,3.5s-1.57,3.5-3.5,3.5-3.5-1.57-3.5-3.5,1.57-3.5,3.5-3.5M1530.5,768c-4.14,0-7.5,3.36-7.5,7.5s3.36,7.5,7.5,7.5,7.5-3.36,7.5-7.5-3.36-7.5-7.5-7.5h0Z"/>
  <path class="cls-1" d="M1636.13,425h316.15l5.39-2h-320.39c-.39.67-.78,1.34-1.16,2Z"/>
  <path class="cls-1" d="M1660.11,393c-.63.67-1.25,1.33-1.86,2h374.91l5.39-2h-378.44Z"/>
  <path class="cls-1" d="M1625.18,450h259.7l5.39-2h-264.44c-.22.67-.44,1.34-.64,2Z"/>
  <path class="cls-1" d="M1648.91,406c-.52.67-1.03,1.34-1.54,2h350.74l5.39-2h-354.6Z"/>
  <path class="cls-1" d="M2065,383h-394.41c-.87.72-1.67,1.39-2.37,2h391.9l4.88-1.81v-.19Z"/>
  <path class="cls-1" d="M1681.72,375c-1.61,1.02-3.12,2.03-4.51,3h401.79l8.09-3h-405.36Z"/>
  <path class="cls-1" d="M1696.47,367c-2.83,1.3-5.47,2.65-7.95,4h409.34l10.78-4h-412.18Z"/>
  <path class="cls-1" d="M1728.79,357c-9.4,1.63-17.82,4.11-25.24,7h413.19l18.87-7h-406.82Z"/>
</svg>