<?xml version="1.0" encoding="UTF-8"?>
<svg id="Art" xmlns="http://www.w3.org/2000/svg" viewBox="0 0 3500 1238">
  <defs>
    <style>
      .cls-1 {
        fill: #1d1c1a;
      }

      .cls-2 {
        fill: #3b3529;
      }

      .cls-3 {
        fill: #e6813b;
      }

      .cls-4 {
        fill: #f6f6f4;
      }

      .cls-5 {
        fill: #e9edd2;
      }
    </style>
  </defs>
  <g>
    <polygon class="cls-5" points="2881 1014 2643 1014 2280 1014 2042 1014 1441 1014 1441 1016 2042 1016 2280 1016 2643 1016 2881 1016 3500 1016 3500 1014 2881 1014"/>
    <path class="cls-4" d="M1804,834v-220l337-125h-386c-59-1-91,34-91,34-47.5,47.5-43.1,90-43.1,90v279h-63.9c-49,0-82,37-82,37l37,16.19v36.81h474l-242-93c62,0,60-55,60-55Z"/>
    <path class="cls-1" d="M1584,919s27-1,27-27h-54c-32.27,0-57.59,16.04-71.13,27h98.13Z"/>
    <path class="cls-1" d="M2141,480h-385.93c-.85-.01-1.71-.02-2.55-.02h0c-59.18,0-92.12,33.7-95,36.77-47.47,47.55-46.03,90.97-45.62,96.62v269.63h9v-270s-4.4-42.5,43.1-90c0,0,31.1-34.02,88.52-34.02.82,0,1.65,0,2.48.02h386l24.3-9h-24.3Z"/>
    <polygon class="cls-1" points="1441 1014 1483 1014 1483 973.29 1441 1014"/>
    <polyline class="cls-3" points="1483 973.29 1483 1014 1512 982 1512 945.19"/>
    <path class="cls-1" d="M1442,929c-2.78-.02-43.07-.03-101.95,16.19h101.95v-16.19Z"/>
    <polyline class="cls-3" points="1442 929 1442 945.19 1512 945.19 1475 929 1442.16 929"/>
    <path class="cls-3" d="M1807.26,982s6.74,9,23.74,9h59.94v-9h-83.68Z"/>
    <path class="cls-2" d="M1530.5,906c1.93,0,3.5,1.57,3.5,3.5s-1.57,3.5-3.5,3.5-3.5-1.57-3.5-3.5,1.57-3.5,3.5-3.5M1530.5,902c-4.14,0-7.5,3.36-7.5,7.5s3.36,7.5,7.5,7.5,7.5-3.36,7.5-7.5-3.36-7.5-7.5-7.5h0Z"/>
    <path class="cls-1" d="M1636.13,559h316.15l5.39-2h-320.39c-.39.67-.78,1.34-1.16,2Z"/>
    <path class="cls-1" d="M1660.11,527c-.63.67-1.25,1.33-1.86,2h374.91l5.39-2h-378.44Z"/>
    <path class="cls-1" d="M1625.18,584h259.7l5.39-2h-264.44c-.22.67-.44,1.34-.64,2Z"/>
    <path class="cls-1" d="M1648.91,540c-.52.67-1.03,1.34-1.54,2h350.74l5.39-2h-354.6Z"/>
    <path class="cls-1" d="M2065,517h-394.41c-.87.72-1.67,1.39-2.37,2h391.9l4.88-1.81v-.19Z"/>
    <path class="cls-1" d="M1681.72,509c-1.61,1.02-3.12,2.03-4.51,3h401.79l8.09-3h-405.36Z"/>
    <path class="cls-1" d="M1696.47,501c-2.83,1.3-5.47,2.65-7.95,4h409.34l10.78-4h-412.18Z"/>
    <path class="cls-1" d="M1728.79,491c-9.4,1.63-17.82,4.11-25.24,7h413.19l18.87-7h-406.82Z"/>
  </g>
  <g>
    <polyline class="cls-4" points="1462.03 974.08 1474.79 961.69 1476.8 968.41"/>
    <polyline class="cls-4" points="1462.39 975.01 1480.16 975.69 1477.16 969.35"/>
    <path class="cls-4" d="M1396.38,1000.35c.38,1.67-.5,3.41-2.15,4.04-1.64.63-3.46-.07-4.3-1.56l-10.19,3.91s10.56,5.59,41.37-6.24c30.81-11.83,35.05-23.1,35.05-23.1l-59.8,22.95Z"/>
    <path class="cls-4" d="M1391.73,997.85c1.64-.63,3.46.07,4.3,1.56l59.8-22.95s-10.69-5.54-41.5,6.29c-30.81,11.83-34.92,23.05-34.92,23.05l10.19-3.91c-.38-1.67.5-3.41,2.15-4.04Z"/>
  </g>
</svg>